<svg width="86" height="63" viewBox="0 0 86 63" fill="none" xmlns="http://www.w3.org/2000/svg">
<path d="M3.62124 60.1392C2.96499 60.1392 2.38 60.0265 1.86627 59.8011C1.35585 59.5758 0.949837 59.2626 0.648227 58.8615C0.349931 58.4572 0.187526 57.9882 0.161011 57.4546H1.41385C1.44037 57.7827 1.55306 58.0661 1.75192 58.3047C1.95078 58.54 2.21096 58.7223 2.53246 58.8516C2.85396 58.9808 3.21025 59.0455 3.60135 59.0455C4.03885 59.0455 4.42664 58.9692 4.7647 58.8168C5.10277 58.6643 5.36792 58.4522 5.56016 58.1804C5.75239 57.9086 5.84851 57.5938 5.84851 57.2358C5.84851 56.8613 5.75571 56.5315 5.5701 56.2465C5.3845 55.9581 5.11272 55.7327 4.75476 55.5703C4.39681 55.4079 3.95931 55.3267 3.44226 55.3267H2.62692V54.233H3.44226C3.84662 54.233 4.20126 54.16 4.50618 54.0142C4.81442 53.8684 5.05471 53.6629 5.22706 53.3977C5.40273 53.1326 5.49056 52.821 5.49056 52.4631C5.49056 52.1184 5.41432 51.8184 5.26186 51.5632C5.1094 51.308 4.89397 51.1091 4.61556 50.9666C4.34046 50.8241 4.01565 50.7528 3.64112 50.7528C3.2898 50.7528 2.95836 50.8175 2.64681 50.9467C2.33857 51.0727 2.08667 51.2566 1.89112 51.4986C1.69558 51.7372 1.58951 52.0256 1.57294 52.3636H0.379761C0.399647 51.83 0.560395 51.3627 0.862005 50.9617C1.16361 50.5573 1.55803 50.2424 2.04524 50.0171C2.53577 49.7917 3.07436 49.679 3.66101 49.679C4.29075 49.679 4.83099 49.8066 5.28175 50.0618C5.73251 50.3137 6.07886 50.6468 6.32081 51.0611C6.56276 51.4754 6.68374 51.9228 6.68374 52.4034C6.68374 52.9768 6.53293 53.4657 6.23132 53.87C5.93303 54.2744 5.52701 54.5545 5.01328 54.7102V54.7898C5.65628 54.8958 6.15841 55.1693 6.51968 55.6101C6.88094 56.0476 7.06158 56.5895 7.06158 57.2358C7.06158 57.7893 6.91077 58.2865 6.60916 58.7273C6.31087 59.1648 5.9032 59.5095 5.38615 59.7614C4.86911 60.0133 4.2808 60.1392 3.62124 60.1392Z" fill="#F7FFFF"/>
<path d="M11.362 60.179C10.8781 60.179 10.4389 60.0878 10.0445 59.9055C9.65012 59.7199 9.33691 59.4531 9.1049 59.1051C8.8729 58.7538 8.75689 58.3296 8.75689 57.8324C8.75689 57.3949 8.84307 57.0403 9.01541 56.7685C9.18776 56.4934 9.41811 56.2779 9.70647 56.1222C9.99482 55.9664 10.313 55.8504 10.661 55.7742C11.0123 55.6946 11.3653 55.6316 11.72 55.5852C12.184 55.5256 12.5602 55.4808 12.8485 55.451C13.1402 55.4179 13.3523 55.3632 13.4849 55.2869C13.6208 55.2107 13.6887 55.0781 13.6887 54.8892V54.8494C13.6887 54.3589 13.5545 53.9778 13.286 53.706C13.0209 53.4342 12.6182 53.2983 12.0779 53.2983C11.5178 53.2983 11.0786 53.4209 10.7604 53.6662C10.4423 53.9115 10.2185 54.1733 10.0893 54.4517L8.97564 54.054C9.17451 53.59 9.43966 53.2287 9.7711 52.9702C10.1059 52.7083 10.4704 52.5261 10.8648 52.4233C11.2626 52.3172 11.6537 52.2642 12.0381 52.2642C12.2834 52.2642 12.5651 52.294 12.8833 52.3537C13.2048 52.41 13.5147 52.5277 13.813 52.7067C14.1146 52.8857 14.3648 53.1558 14.5637 53.5171C14.7626 53.8783 14.862 54.3622 14.862 54.9688V60H13.6887V58.9659H13.6291C13.5495 59.1316 13.4169 59.309 13.2313 59.4979C13.0457 59.6868 12.7988 59.8475 12.4906 59.9801C12.1823 60.1127 11.8061 60.179 11.362 60.179ZM11.541 59.125C12.005 59.125 12.3961 59.0339 12.7143 58.8516C13.0358 58.6693 13.2777 58.434 13.4401 58.1456C13.6058 57.8573 13.6887 57.554 13.6887 57.2358V56.1619C13.639 56.2216 13.5296 56.2763 13.3606 56.326C13.1949 56.3724 13.0026 56.4138 12.7839 56.4503C12.5684 56.4834 12.358 56.5133 12.1525 56.5398C11.9503 56.563 11.7862 56.5829 11.6603 56.5994C11.3554 56.6392 11.0703 56.7038 10.8052 56.7933C10.5433 56.8795 10.3312 57.0104 10.1688 57.1861C10.0097 57.3584 9.93019 57.5938 9.93019 57.8921C9.93019 58.2997 10.081 58.608 10.3826 58.8168C10.6875 59.0223 11.0737 59.125 11.541 59.125Z" fill="#F7FFFF"/>
<path d="M17.0035 60V52.3636H23.0092V60H21.8359V53.4574H18.1768V60H17.0035Z" fill="#F7FFFF"/>
<path d="M24.4758 60V58.9063H24.7542C24.9829 58.9063 25.1735 58.8615 25.326 58.772C25.4784 58.6792 25.6011 58.5185 25.6939 58.2898C25.79 58.0578 25.8629 57.7363 25.9126 57.3253C25.9656 56.911 26.0038 56.384 26.027 55.7443L26.1662 52.3636H31.2571V60H30.0838V53.4574H27.2798L27.1605 56.1818C27.134 56.8082 27.0776 57.3601 26.9914 57.8374C26.9086 58.3113 26.781 58.7091 26.6086 59.0305C26.4396 59.352 26.2142 59.594 25.9325 59.7564C25.6508 59.9188 25.2978 60 24.8735 60H24.4758Z" fill="#F7FFFF"/>
<path d="M35.6569 60.179C35.173 60.179 34.7339 60.0878 34.3395 59.9055C33.945 59.7199 33.6318 59.4531 33.3998 59.1051C33.1678 58.7538 33.0518 58.3296 33.0518 57.8324C33.0518 57.3949 33.138 57.0403 33.3103 56.7685C33.4827 56.4934 33.713 56.2779 34.0014 56.1222C34.2897 55.9664 34.6079 55.8504 34.9559 55.7742C35.3073 55.6946 35.6602 55.6316 36.0149 55.5852C36.4789 55.5256 36.8551 55.4808 37.1434 55.451C37.4351 55.4179 37.6472 55.3632 37.7798 55.2869C37.9157 55.2107 37.9836 55.0781 37.9836 54.8892V54.8494C37.9836 54.3589 37.8494 53.9778 37.5809 53.706C37.3158 53.4342 36.9131 53.2983 36.3728 53.2983C35.8127 53.2983 35.3735 53.4209 35.0554 53.6662C34.7372 53.9115 34.5135 54.1733 34.3842 54.4517L33.2706 54.054C33.4694 53.59 33.7346 53.2287 34.066 52.9702C34.4008 52.7083 34.7654 52.5261 35.1598 52.4233C35.5575 52.3172 35.9486 52.2642 36.3331 52.2642C36.5783 52.2642 36.8601 52.294 37.1782 52.3537C37.4997 52.41 37.8096 52.5277 38.1079 52.7067C38.4095 52.8857 38.6598 53.1558 38.8586 53.5171C39.0575 53.8783 39.1569 54.3622 39.1569 54.9688V60H37.9836V58.9659H37.924C37.8444 59.1316 37.7118 59.309 37.5262 59.4979C37.3406 59.6868 37.0937 59.8475 36.7855 59.9801C36.4772 60.1127 36.1011 60.179 35.6569 60.179ZM35.8359 59.125C36.2999 59.125 36.691 59.0339 37.0092 58.8516C37.3307 58.6693 37.5726 58.434 37.7351 58.1456C37.9008 57.8573 37.9836 57.554 37.9836 57.2358V56.1619C37.9339 56.2216 37.8245 56.2763 37.6555 56.326C37.4898 56.3724 37.2976 56.4138 37.0788 56.4503C36.8634 56.4834 36.6529 56.5133 36.4474 56.5398C36.2452 56.563 36.0812 56.5829 35.9552 56.5994C35.6503 56.6392 35.3653 56.7038 35.1001 56.7933C34.8383 56.8795 34.6262 57.0104 34.4637 57.1861C34.3047 57.3584 34.2251 57.5938 34.2251 57.8921C34.2251 58.2997 34.3759 58.608 34.6775 58.8168C34.9824 59.0223 35.3686 59.125 35.8359 59.125Z" fill="#F7FFFF"/>
<path d="M46.4092 55.6449V56.7386H42.1933V55.6449H46.4092ZM42.4717 52.3636V60H41.2984V52.3636H42.4717ZM47.3041 52.3636V60H46.1308V52.3636H47.3041Z" fill="#F7FFFF"/>
<path d="M49.9291 62.8636C49.7303 62.8636 49.5529 62.8471 49.3972 62.8139C49.2414 62.7841 49.1337 62.7543 49.074 62.7244L49.3723 61.6903C49.6573 61.7633 49.9092 61.7898 50.128 61.7699C50.3467 61.75 50.5406 61.6522 50.7097 61.4766C50.882 61.3042 51.0394 61.0242 51.182 60.6364L51.4007 60.0398L48.5768 52.3636H49.8496L51.9575 58.4489H52.0371L54.145 52.3636H55.4178L52.1763 61.1136C52.0304 61.5081 51.8498 61.8345 51.6344 62.093C51.4189 62.3549 51.1687 62.5488 50.8837 62.6747C50.6019 62.8007 50.2838 62.8636 49.9291 62.8636Z" fill="#F7FFFF"/>
<path d="M56.9664 60V52.3636H60.0886C60.9105 52.3636 61.5635 52.5493 62.0474 52.9205C62.5313 53.2917 62.7732 53.7822 62.7732 54.3921C62.7732 54.8561 62.6357 55.2157 62.3606 55.4709C62.0855 55.7228 61.7325 55.8935 61.3016 55.983C61.5834 56.0227 61.8568 56.1222 62.1219 56.2813C62.3904 56.4403 62.6125 56.6591 62.7881 56.9375C62.9638 57.2126 63.0516 57.5507 63.0516 57.9517C63.0516 58.3428 62.9522 58.6925 62.7533 59.0007C62.5545 59.309 62.2694 59.5526 61.8982 59.7315C61.527 59.9105 61.0829 60 60.5658 60H56.9664ZM58.08 58.9261H60.5658C60.9702 58.9261 61.2867 58.83 61.5154 58.6378C61.7441 58.4456 61.8585 58.1837 61.8585 57.8523C61.8585 57.4579 61.7441 57.148 61.5154 56.9226C61.2867 56.6939 60.9702 56.5796 60.5658 56.5796H58.08V58.9261ZM58.08 55.5653H60.0886C60.4034 55.5653 60.6736 55.5223 60.8989 55.4361C61.1243 55.3466 61.2967 55.2207 61.416 55.0582C61.5386 54.8925 61.5999 54.697 61.5999 54.4716C61.5999 54.1501 61.4657 53.8982 61.1972 53.7159C60.9288 53.5303 60.5592 53.4375 60.0886 53.4375H58.08V55.5653Z" fill="#F7FFFF"/>
<path d="M67.0749 60.179C66.591 60.179 66.1518 60.0878 65.7574 59.9055C65.363 59.7199 65.0498 59.4531 64.8178 59.1051C64.5858 58.7538 64.4698 58.3296 64.4698 57.8324C64.4698 57.3949 64.556 57.0403 64.7283 56.7685C64.9007 56.4934 65.131 56.2779 65.4194 56.1222C65.7077 55.9664 66.0259 55.8504 66.3739 55.7742C66.7252 55.6946 67.0782 55.6316 67.4329 55.5852C67.8969 55.5256 68.273 55.4808 68.5614 55.451C68.8531 55.4179 69.0652 55.3632 69.1978 55.2869C69.3337 55.2107 69.4016 55.0781 69.4016 54.8892V54.8494C69.4016 54.3589 69.2674 53.9778 68.9989 53.706C68.7337 53.4342 68.3311 53.2983 67.7908 53.2983C67.2307 53.2983 66.7915 53.4209 66.4733 53.6662C66.1552 53.9115 65.9314 54.1733 65.8022 54.4517L64.6885 54.054C64.8874 53.59 65.1525 53.2287 65.484 52.9702C65.8187 52.7083 66.1833 52.5261 66.5777 52.4233C66.9755 52.3172 67.3666 52.2642 67.751 52.2642C67.9963 52.2642 68.278 52.294 68.5962 52.3537C68.9177 52.41 69.2276 52.5277 69.5259 52.7067C69.8275 52.8857 70.0777 53.1558 70.2766 53.5171C70.4755 53.8783 70.5749 54.3622 70.5749 54.9688V60H69.4016V58.9659H69.3419C69.2624 59.1316 69.1298 59.309 68.9442 59.4979C68.7586 59.6868 68.5117 59.8475 68.2035 59.9801C67.8952 60.1127 67.519 60.179 67.0749 60.179ZM67.2539 59.125C67.7179 59.125 68.109 59.0339 68.4272 58.8516C68.7487 58.6693 68.9906 58.434 69.153 58.1456C69.3187 57.8573 69.4016 57.554 69.4016 57.2358V56.1619C69.3519 56.2216 69.2425 56.2763 69.0735 56.326C68.9078 56.3724 68.7155 56.4138 68.4968 56.4503C68.2813 56.4834 68.0709 56.5133 67.8654 56.5398C67.6632 56.563 67.4991 56.5829 67.3732 56.5994C67.0683 56.6392 66.7832 56.7038 66.5181 56.7933C66.2562 56.8795 66.0441 57.0104 65.8817 57.1861C65.7226 57.3584 65.6431 57.5938 65.6431 57.8921C65.6431 58.2997 65.7939 58.608 66.0955 58.8168C66.4004 59.0223 66.7865 59.125 67.2539 59.125Z" fill="#F7FFFF"/>
<path d="M71.6773 53.4574V52.3636H77.8819V53.4574H75.3762V60H74.2029V53.4574H71.6773Z" fill="#F7FFFF"/>
<path d="M80.7667 58.2699L84.4456 52.3636H85.7979V60H84.6246V54.0938L80.9655 60H79.5934V52.3636H80.7667V58.2699Z" fill="#F7FFFF"/>
<rect x="22.412" y="7.05675" width="41.1349" height="31.9432" rx="2" stroke="#F7FFFF" stroke-width="1.2" stroke-linejoin="round"/>
<path d="M52.6775 1V10.6349" stroke="#F7FFFF" stroke-width="1.2" stroke-linecap="round" stroke-linejoin="round"/>
<path d="M33.2816 1V10.6349" stroke="#F7FFFF" stroke-width="1.2" stroke-linecap="round" stroke-linejoin="round"/>
<path d="M52.6775 18.7483V35.8027" stroke="#F7FFFF" stroke-width="1.2" stroke-linecap="round" stroke-linejoin="round"/>
<path d="M26.8149 23.6706L59.0981 23.6706" stroke="#F7FFFF" stroke-width="1.2" stroke-linecap="round" stroke-linejoin="round"/>
<path d="M22.6287 15.4714L63.2841 15.4714" stroke="#F7FFFF" stroke-width="1.2" stroke-linecap="round" stroke-linejoin="round"/>
<path d="M26.8149 30.3799L59.0981 30.3799" stroke="#F7FFFF" stroke-width="1.2" stroke-linecap="round" stroke-linejoin="round"/>
<path d="M42.9564 18.7483V35.8027" stroke="#F7FFFF" stroke-width="1.2" stroke-linecap="round" stroke-linejoin="round"/>
<path d="M33.2816 18.7483V35.8027" stroke="#F7FFFF" stroke-width="1.2" stroke-linecap="round" stroke-linejoin="round"/>
</svg>
