<svg width="70" height="67" viewBox="0 0 70 67" fill="none" xmlns="http://www.w3.org/2000/svg">
<path d="M0.12915 54.9119V53.8182H7.76551V54.9119H4.56381V64H3.33086V54.9119H0.12915Z" fill="#F7FFFF"/>
<path d="M11.6036 64.1591C10.8678 64.1591 10.2331 63.9967 9.69946 63.6719C9.16916 63.3438 8.75983 62.8864 8.47148 62.2997C8.18644 61.7098 8.04392 61.0237 8.04392 60.2415C8.04392 59.4593 8.18644 58.7699 8.47148 58.1733C8.75983 57.5734 9.16087 57.1061 9.6746 56.7713C10.1917 56.4332 10.7949 56.2642 11.4843 56.2642C11.882 56.2642 12.2747 56.3305 12.6625 56.4631C13.0503 56.5956 13.4033 56.8111 13.7215 57.1094C14.0397 57.4044 14.2932 57.7955 14.4821 58.2827C14.6711 58.7699 14.7655 59.3698 14.7655 60.0824V60.5795H8.87915V59.5653H13.5723C13.5723 59.1345 13.4862 58.75 13.3138 58.4119C13.1448 58.0739 12.9028 57.8071 12.588 57.6115C12.2764 57.416 11.9085 57.3182 11.4843 57.3182C11.0169 57.3182 10.6126 57.4342 10.2712 57.6662C9.93313 57.8949 9.67295 58.1932 9.49066 58.5611C9.30836 58.929 9.21722 59.3234 9.21722 59.7443V60.4205C9.21722 60.9972 9.31665 61.486 9.51551 61.8871C9.71769 62.2848 9.99776 62.5881 10.3557 62.7969C10.7137 63.0024 11.1296 63.1051 11.6036 63.1051C11.9118 63.1051 12.1902 63.062 12.4388 62.9759C12.6907 62.8864 12.9078 62.7538 13.0901 62.5781C13.2724 62.3991 13.4132 62.1771 13.5127 61.9119L14.6462 62.2301C14.5269 62.6146 14.3264 62.9527 14.0446 63.2443C13.7629 63.5327 13.4149 63.758 13.0006 63.9205C12.5863 64.0795 12.1206 64.1591 11.6036 64.1591Z" fill="#F7FFFF"/>
<path d="M16.5503 66.8636V56.3636H17.6838V57.5767H17.823C17.9092 57.4441 18.0285 57.2751 18.181 57.0696C18.3368 56.8608 18.5588 56.6752 18.8472 56.5128C19.1389 56.3471 19.5333 56.2642 20.0304 56.2642C20.6734 56.2642 21.2402 56.425 21.7307 56.7464C22.2212 57.0679 22.6041 57.5237 22.8792 58.1136C23.1542 58.7036 23.2918 59.3996 23.2918 60.2017C23.2918 61.0104 23.1542 61.7114 22.8792 62.3047C22.6041 62.8946 22.2229 63.352 21.7357 63.6768C21.2485 63.9983 20.6867 64.1591 20.0503 64.1591C19.5598 64.1591 19.167 64.0779 18.872 63.9155C18.5771 63.7498 18.35 63.5625 18.1909 63.3537C18.0319 63.1416 17.9092 62.9659 17.823 62.8267H17.7236V66.8636H16.5503ZM17.7037 60.1818C17.7037 60.7585 17.7882 61.2673 17.9573 61.7081C18.1263 62.1456 18.3732 62.4886 18.698 62.7372C19.0229 62.9825 19.4206 63.1051 19.8912 63.1051C20.3818 63.1051 20.7911 62.9759 21.1192 62.7173C21.4506 62.4555 21.6992 62.1042 21.8649 61.6634C22.034 61.2192 22.1185 60.7254 22.1185 60.1818C22.1185 59.6449 22.0356 59.161 21.8699 58.7301C21.7075 58.2959 21.4606 57.9529 21.1292 57.701C20.801 57.4458 20.3884 57.3182 19.8912 57.3182C19.414 57.3182 19.0129 57.4392 18.6881 57.6811C18.3633 57.9197 18.118 58.2545 17.9523 58.6854C17.7866 59.1129 17.7037 59.6117 17.7037 60.1818Z" fill="#F7FFFF"/>
<path d="M29.2577 62.4091L31.9225 56.3636H33.0361L29.735 64H28.7804L25.539 56.3636H26.6327L29.2577 62.4091ZM26.2549 56.3636V64H25.0816V56.3636H26.2549ZM32.2605 64V56.3636H33.4338V64H32.2605Z" fill="#F7FFFF"/>
<path d="M35.5816 64V56.3636H36.7549V64H35.5816ZM36.1782 55.0909C35.9495 55.0909 35.7523 55.013 35.5865 54.8572C35.4241 54.7015 35.3429 54.5142 35.3429 54.2955C35.3429 54.0767 35.4241 53.8894 35.5865 53.7337C35.7523 53.5779 35.9495 53.5 36.1782 53.5C36.4069 53.5 36.6024 53.5779 36.7648 53.7337C36.9305 53.8894 37.0134 54.0767 37.0134 54.2955C37.0134 54.5142 36.9305 54.7015 36.7648 54.8572C36.6024 55.013 36.4069 55.0909 36.1782 55.0909Z" fill="#F7FFFF"/>
<path d="M44.0146 59.6449V60.7386H39.7987V59.6449H44.0146ZM40.0771 56.3636V64H38.9038V56.3636H40.0771ZM44.9095 56.3636V64H43.7362V56.3636H44.9095Z" fill="#F7FFFF"/>
<path d="M50.1545 64.1591C49.4651 64.1591 48.8603 63.995 48.3399 63.6669C47.8229 63.3388 47.4185 62.8797 47.1268 62.2898C46.8385 61.6998 46.6943 61.0104 46.6943 60.2216C46.6943 59.4261 46.8385 58.7318 47.1268 58.1385C47.4185 57.5452 47.8229 57.0845 48.3399 56.7564C48.8603 56.4283 49.4651 56.2642 50.1545 56.2642C50.8439 56.2642 51.4472 56.4283 51.9642 56.7564C52.4846 57.0845 52.8889 57.5452 53.1773 58.1385C53.4689 58.7318 53.6148 59.4261 53.6148 60.2216C53.6148 61.0104 53.4689 61.6998 53.1773 62.2898C52.8889 62.8797 52.4846 63.3388 51.9642 63.6669C51.4472 63.995 50.8439 64.1591 50.1545 64.1591ZM50.1545 63.1051C50.6782 63.1051 51.1091 62.9709 51.4472 62.7024C51.7852 62.4339 52.0355 62.081 52.1979 61.6435C52.3603 61.206 52.4415 60.732 52.4415 60.2216C52.4415 59.7112 52.3603 59.2356 52.1979 58.7947C52.0355 58.3539 51.7852 57.9976 51.4472 57.7259C51.1091 57.4541 50.6782 57.3182 50.1545 57.3182C49.6309 57.3182 49.2 57.4541 48.8619 57.7259C48.5239 57.9976 48.2736 58.3539 48.1112 58.7947C47.9488 59.2356 47.8676 59.7112 47.8676 60.2216C47.8676 60.732 47.9488 61.206 48.1112 61.6435C48.2736 62.081 48.5239 62.4339 48.8619 62.7024C49.2 62.9709 49.6309 63.1051 50.1545 63.1051Z" fill="#F7FFFF"/>
<path d="M55.4058 64V56.3636H58.5279C59.3499 56.3636 60.0028 56.5492 60.4868 56.9205C60.9707 57.2917 61.2126 57.7822 61.2126 58.392C61.2126 58.8561 61.0751 59.2157 60.8 59.4709C60.5249 59.7228 60.1719 59.8935 59.741 59.983C60.0227 60.0227 60.2962 60.1222 60.5613 60.2812C60.8298 60.4403 61.0519 60.6591 61.2275 60.9375C61.4032 61.2126 61.491 61.5507 61.491 61.9517C61.491 62.3428 61.3916 62.6925 61.1927 63.0007C60.9939 63.3089 60.7088 63.5526 60.3376 63.7315C59.9664 63.9105 59.5223 64 59.0052 64H55.4058ZM56.5194 62.9261H59.0052C59.4096 62.9261 59.7261 62.83 59.9548 62.6378C60.1835 62.4455 60.2978 62.1837 60.2978 61.8523C60.2978 61.4579 60.1835 61.148 59.9548 60.9226C59.7261 60.6939 59.4096 60.5795 59.0052 60.5795H56.5194V62.9261ZM56.5194 59.5653H58.5279C58.8428 59.5653 59.1129 59.5223 59.3383 59.4361C59.5637 59.3466 59.736 59.2206 59.8554 59.0582C59.978 58.8925 60.0393 58.697 60.0393 58.4716C60.0393 58.1501 59.9051 57.8982 59.6366 57.7159C59.3681 57.5303 58.9986 57.4375 58.5279 57.4375H56.5194V59.5653Z" fill="#F7FFFF"/>
<path d="M66.3694 64.1591C65.68 64.1591 65.0751 63.995 64.5547 63.6669C64.0377 63.3388 63.6334 62.8797 63.3417 62.2898C63.0533 61.6998 62.9092 61.0104 62.9092 60.2216C62.9092 59.4261 63.0533 58.7318 63.3417 58.1385C63.6334 57.5452 64.0377 57.0845 64.5547 56.7564C65.0751 56.4283 65.68 56.2642 66.3694 56.2642C67.0588 56.2642 67.662 56.4283 68.179 56.7564C68.6994 57.0845 69.1038 57.5452 69.3921 58.1385C69.6838 58.7318 69.8296 59.4261 69.8296 60.2216C69.8296 61.0104 69.6838 61.6998 69.3921 62.2898C69.1038 62.8797 68.6994 63.3388 68.179 63.6669C67.662 63.995 67.0588 64.1591 66.3694 64.1591ZM66.3694 63.1051C66.8931 63.1051 67.3239 62.9709 67.662 62.7024C68.0001 62.4339 68.2503 62.081 68.4127 61.6435C68.5751 61.206 68.6563 60.732 68.6563 60.2216C68.6563 59.7112 68.5751 59.2356 68.4127 58.7947C68.2503 58.3539 68.0001 57.9976 67.662 57.7259C67.3239 57.4541 66.8931 57.3182 66.3694 57.3182C65.8457 57.3182 65.4148 57.4541 65.0768 57.7259C64.7387 57.9976 64.4885 58.3539 64.3261 58.7947C64.1637 59.2356 64.0825 59.7112 64.0825 60.2216C64.0825 60.732 64.1637 61.206 64.3261 61.6435C64.4885 62.081 64.7387 62.4339 65.0768 62.7024C65.4148 62.9709 65.8457 63.1051 66.3694 63.1051Z" fill="#F7FFFF"/>
<path d="M36.3912 39.9678C44.0998 39.9678 50.3488 33.6998 50.3488 25.9678C50.3488 18.2358 44.0998 11.9678 36.3912 11.9678C28.6826 11.9678 22.4336 18.2358 22.4336 25.9678C22.4336 33.6998 28.6826 39.9678 36.3912 39.9678Z" stroke="white" stroke-width="1.2" stroke-miterlimit="10" stroke-linecap="round" stroke-linejoin="round"/>
<path d="M36.3912 36.8438V39.9164" stroke="white" stroke-width="1.2" stroke-miterlimit="10" stroke-linecap="round" stroke-linejoin="round"/>
<path d="M42.774 34.774L44.5684 37.2552" stroke="white" stroke-width="1.2" stroke-miterlimit="10" stroke-linecap="round" stroke-linejoin="round"/>
<path d="M46.709 29.3232L49.6184 30.2745" stroke="white" stroke-width="1.2" stroke-miterlimit="10" stroke-linecap="round" stroke-linejoin="round"/>
<path d="M46.709 22.5995L49.6184 21.6482" stroke="white" stroke-width="1.2" stroke-miterlimit="10" stroke-linecap="round" stroke-linejoin="round"/>
<path d="M42.774 17.1616L44.5684 14.6804" stroke="white" stroke-width="1.2" stroke-miterlimit="10" stroke-linecap="round" stroke-linejoin="round"/>
<path d="M38.0044 23.769L41.5649 18.8913" stroke="white" stroke-width="1.2" stroke-miterlimit="10" stroke-linecap="round" stroke-linejoin="round"/>
<path d="M36.3912 15.0789V12.0192" stroke="white" stroke-width="1.2" stroke-miterlimit="10" stroke-linecap="round" stroke-linejoin="round"/>
<path d="M30.0213 17.1616L28.2141 14.6804" stroke="white" stroke-width="1.2" stroke-miterlimit="10" stroke-linecap="round" stroke-linejoin="round"/>
<path d="M26.0735 22.5995L23.1641 21.6482" stroke="white" stroke-width="1.2" stroke-miterlimit="10" stroke-linecap="round" stroke-linejoin="round"/>
<path d="M26.0735 29.3232L23.1641 30.2745" stroke="white" stroke-width="1.2" stroke-miterlimit="10" stroke-linecap="round" stroke-linejoin="round"/>
<path d="M30.0213 34.774L28.2141 37.2552" stroke="white" stroke-width="1.2" stroke-miterlimit="10" stroke-linecap="round" stroke-linejoin="round"/>
<path d="M36.7373 25.6207H36.0452V26.3149H36.7373V25.6207Z" fill="white"/>
<path d="M36.3914 28.5133C37.7929 28.5133 38.9291 27.3736 38.9291 25.9678C38.9291 24.562 37.7929 23.4223 36.3914 23.4223C34.9898 23.4223 33.8536 24.562 33.8536 25.9678C33.8536 27.3736 34.9898 28.5133 36.3914 28.5133Z" stroke="white" stroke-width="1.2" stroke-miterlimit="10" stroke-linecap="round" stroke-linejoin="round"/>
<path fill-rule="evenodd" clip-rule="evenodd" d="M27.5989 8.88792C21.6336 11.8874 15.8993 9.64831 11.8298 13.7178C11.3669 14.1807 11.51 14.5997 12.1385 14.611C14.8181 14.6662 16.3623 15.2834 17.1891 16.75C17.7848 17.7975 17.2882 17.9518 15.9872 17.8087C10.0219 17.1914 8.77517 22.8154 2.85383 20.5548C2.19258 20.3013 1.91667 20.6763 2.3469 21.635C4.98255 27.4797 9.75722 29.7618 14.2784 28.2625C18.1047 26.9942 18.766 28.9686 17.0684 30.6662C16.1088 31.6146 13.374 32.5405 10.9927 31.7689C10.1875 31.5154 10.0444 31.6473 10.2978 32.3198C12.073 37.0393 15.8666 39.4318 21.3689 37.3152C22.6699 36.8186 23.0889 37.8773 22.1405 38.6826L20.2325 40.2922C19.7471 40.7 19.9903 41.3285 20.7067 41.3837C26.8927 41.8355 29.0214 44.9678 35.8912 44.9678C46.3664 44.9678 54.858 36.4547 54.858 25.957C54.858 21.259 53.1585 16.9614 50.3368 13.6504C48.8796 11.9398 47.4645 10.8885 46.3777 10.1328C43.9048 8.41185 40.9417 7.38677 37.7879 7.0669L35.9024 6.96776C32.9254 6.96776 30.1026 7.66269 27.5989 8.88605L27.5989 8.88792Z" stroke="white" stroke-width="1.2" stroke-miterlimit="10"/>
<path d="M53.7103 5.39648L49.7103 9.39648" stroke="white" stroke-width="1.2" stroke-linecap="round"/>
<path d="M49.7103 5.39648L53.7103 9.39648" stroke="white" stroke-width="1.2" stroke-linecap="round"/>
<path d="M57.9855 9.96777H54.6895V9.20777C54.6895 8.82377 54.7402 8.50377 54.8415 8.24777C54.9428 7.98644 55.0788 7.77311 55.2495 7.60777C55.4202 7.43711 55.6068 7.30111 55.8095 7.19977L56.3535 6.92777C56.5615 6.82111 56.7295 6.70911 56.8575 6.59177C56.9908 6.46911 57.0575 6.31177 57.0575 6.11977V5.97577C57.0575 5.77844 56.9882 5.62377 56.8495 5.51177C56.7162 5.39444 56.5002 5.33577 56.2015 5.33577C56.0202 5.33577 55.8362 5.36244 55.6495 5.41577C55.4682 5.46911 55.2468 5.54377 54.9855 5.63977L54.6895 4.81577C54.9882 4.68244 55.2602 4.58911 55.5055 4.53577C55.7562 4.47711 55.9988 4.44777 56.2335 4.44777C56.6655 4.44777 57.0095 4.51711 57.2655 4.65577C57.5268 4.79444 57.7135 4.98111 57.8255 5.21577C57.9428 5.44511 58.0015 5.69844 58.0015 5.97577V6.11977C58.0015 6.40777 57.9428 6.65311 57.8255 6.85577C57.7135 7.05844 57.5642 7.22911 57.3775 7.36777C57.1908 7.50644 56.9882 7.62911 56.7695 7.73577L56.2255 8.00777C56.0282 8.10377 55.8815 8.23711 55.7855 8.40777C55.6948 8.57844 55.6442 8.79711 55.6335 9.06377H57.9855V9.96777Z" fill="white"/>
</svg>
