<svg width="37" height="25" viewBox="0 0 37 25" fill="none" xmlns="http://www.w3.org/2000/svg">
<path d="M26.7592 4.21692L19.4293 8.43169C17.5374 9.51955 15.2004 9.47821 13.3482 8.32412V8.32412C11.2749 7.03228 8.76401 6.64291 6.39683 7.24612L3.37506 8.01614L1.13257 11.0061L3.07102 10.6189C7.7818 9.67797 12.5636 11.872 14.9226 16.0568L15.665 17.3739C16.0922 18.1318 16.8947 18.6007 17.7648 18.6007H19.7231C20.4907 18.6007 21.1387 18.0302 21.236 17.2688V17.2688C21.5893 14.5036 23.4727 12.1229 26.1769 11.4459C27.217 11.1855 28.1599 11.0067 28.6233 11.0647" stroke="white" stroke-miterlimit="10" stroke-linecap="round" stroke-linejoin="round"/>
<path d="M19.0728 0.578445H22.0064C24.2357 0.578445 26.1871 2.07578 26.7641 4.22913V4.22913L29.1465 8.4927C31.5036 9.29051 32.2795 9.74746 32.9857 10.3611L33.6169 11.6867C30.587 10.9797 28.9588 10.9445 28.3841 11.0642M30.5009 18.1751L28.6325 11.2021" stroke="white" stroke-miterlimit="10" stroke-linecap="round"/>
<path d="M19.9694 18.6007H6.37598" stroke="white" stroke-miterlimit="10"/>
<path d="M6.80623 24.4216C9.91813 24.4216 12.4408 21.9131 12.4408 18.8187C12.4408 15.7243 9.91813 13.2158 6.80623 13.2158C3.69433 13.2158 1.17163 15.7243 1.17163 18.8187C1.17163 21.9131 3.69433 24.4216 6.80623 24.4216Z" stroke="white" stroke-miterlimit="10"/>
<path d="M30.5142 24.4216C33.6261 24.4216 36.1488 21.9131 36.1488 18.8187C36.1488 15.7243 33.6261 13.2158 30.5142 13.2158C27.4023 13.2158 24.8796 15.7243 24.8796 18.8187C24.8796 21.9131 27.4023 24.4216 30.5142 24.4216Z" stroke="white" stroke-miterlimit="10"/>
<path d="M27.9498 6.31737L27.5163 5.4759C27.3739 5.19965 27.3939 4.86773 27.5682 4.61049C27.9315 4.07445 28.7371 4.12594 29.0292 4.70387L29.4562 5.54866C29.7324 6.09521 29.3541 6.74503 28.7425 6.77472C28.4114 6.79079 28.1015 6.612 27.9498 6.31737Z" stroke="white" stroke-linecap="round"/>
</svg>
