<svg width="19" height="31" viewBox="0 0 19 31" fill="none" xmlns="http://www.w3.org/2000/svg">
<path d="M12.508 29.0164L11.8296 23.2954C11.8054 23.0912 11.7164 22.9 11.5757 22.7499L6.64972 17.4932C6.21011 17.0241 6.02282 16.3723 6.14635 15.7413L7.04758 11.1386L4.89086 12.4327L3.52202 16.2956C3.29841 16.9267 2.62779 17.2804 1.98072 17.1085C1.24883 16.9141 0.842838 16.1322 1.10484 15.4217L2.82603 10.7543C2.89328 10.5719 3.02236 10.4189 3.1908 10.3219L8.30287 7.37761C8.83086 7.07352 9.45624 6.98616 10.0473 7.13394C11.2027 7.42279 11.9315 8.56339 11.7082 9.73316L10.3909 16.635C10.3353 16.9263 10.4232 17.2266 10.6271 17.4419L14.2526 21.2688C14.4375 21.464 14.5547 21.7134 14.587 21.9802L15.3961 28.6705C15.4869 29.4219 14.9863 30.1174 14.245 30.2697C13.4107 30.4412 12.6083 29.8622 12.508 29.0164Z" stroke="white" stroke-linejoin="round"/>
<path d="M11.4827 8.28371L14.202 13.0471C14.2553 13.1405 14.3376 13.214 14.4365 13.2566L17.3209 14.4982C18.0423 14.8087 18.3406 15.6721 17.9647 16.3617V16.3617C17.6311 16.9736 16.8826 17.2256 16.2469 16.9399L12.5698 15.2877C12.4748 15.245 12.3976 15.1705 12.3516 15.0771L11.2194 12.7774" stroke="white" stroke-linecap="round" stroke-linejoin="round"/>
<path d="M6.09621 16.0443L4.68828 22.5671C4.66248 22.6866 4.61393 22.8 4.54527 22.9012L0.902213 28.2699C0.488589 28.8794 0.632949 29.7072 1.22849 30.1407C1.84194 30.5873 2.70182 30.4482 3.14312 29.8309L7.38611 23.8961C7.44125 23.819 7.47958 23.7312 7.49862 23.6383L8.34058 19.529" stroke="white" stroke-linecap="round" stroke-linejoin="round"/>
<circle cx="10.7984" cy="3.25866" r="2.34702" stroke="white"/>
</svg>
