<svg width="75" height="62" viewBox="0 0 75 62" fill="none" xmlns="http://www.w3.org/2000/svg">
<path d="M0.719238 61.4659V57.9063H1.37549C1.60087 57.7008 1.81299 57.4108 2.01185 57.0362C2.21403 56.6584 2.38472 56.1546 2.52393 55.5249C2.66644 54.8918 2.7609 54.0881 2.80731 53.1136L3.02606 48.8182H9.07151V57.9063H10.2448V61.446H9.07151V59H1.89253V61.4659H0.719238ZM2.84708 57.9063H7.89822V49.9119H4.13969L3.9806 53.1136C3.94083 53.8561 3.87123 54.5289 3.7718 55.1321C3.67236 55.732 3.54476 56.264 3.38898 56.728C3.23321 57.1887 3.05257 57.5814 2.84708 57.9063Z" fill="#F7FFFF"/>
<path d="M15.0511 59.1591C14.3617 59.1591 13.7568 58.995 13.2365 58.6669C12.7194 58.3388 12.3151 57.8797 12.0234 57.2898C11.735 56.6998 11.5909 56.0104 11.5909 55.2216C11.5909 54.4261 11.735 53.7318 12.0234 53.1385C12.3151 52.5452 12.7194 52.0845 13.2365 51.7564C13.7568 51.4283 14.3617 51.2642 15.0511 51.2642C15.7405 51.2642 16.3437 51.4283 16.8608 51.7564C17.3811 52.0845 17.7855 52.5452 18.0738 53.1385C18.3655 53.7318 18.5113 54.4261 18.5113 55.2216C18.5113 56.0104 18.3655 56.6998 18.0738 57.2898C17.7855 57.8797 17.3811 58.3388 16.8608 58.6669C16.3437 58.995 15.7405 59.1591 15.0511 59.1591ZM15.0511 58.1051C15.5748 58.1051 16.0056 57.9709 16.3437 57.7024C16.6818 57.434 16.932 57.081 17.0944 56.6435C17.2568 56.206 17.338 55.732 17.338 55.2216C17.338 54.7112 17.2568 54.2356 17.0944 53.7948C16.932 53.3539 16.6818 52.9976 16.3437 52.7259C16.0056 52.4541 15.5748 52.3182 15.0511 52.3182C14.5274 52.3182 14.0965 52.4541 13.7585 52.7259C13.4204 52.9976 13.1702 53.3539 13.0078 53.7948C12.8454 54.2356 12.7642 54.7112 12.7642 55.2216C12.7642 55.732 12.8454 56.206 13.0078 56.6435C13.1702 57.081 13.4204 57.434 13.7585 57.7024C14.0965 57.9709 14.5274 58.1051 15.0511 58.1051Z" fill="#F7FFFF"/>
<path d="M27.6603 59.1392C27.004 59.1392 26.419 59.0265 25.9053 58.8011C25.3949 58.5758 24.9889 58.2626 24.6873 57.8615C24.389 57.4572 24.2266 56.9882 24.2001 56.4546H25.4529C25.4794 56.7827 25.5921 57.0661 25.791 57.3047C25.9898 57.54 26.25 57.7223 26.5715 57.8516C26.893 57.9808 27.2493 58.0455 27.6404 58.0455C28.0779 58.0455 28.4657 57.9692 28.8038 57.8168C29.1418 57.6643 29.407 57.4522 29.5992 57.1804C29.7914 56.9086 29.8876 56.5938 29.8876 56.2358C29.8876 55.8613 29.7948 55.5315 29.6091 55.2465C29.4235 54.9581 29.1518 54.7327 28.7938 54.5703C28.4359 54.4079 27.9984 54.3267 27.4813 54.3267H26.666V53.233H27.4813C27.8857 53.233 28.2403 53.16 28.5452 53.0142C28.8535 52.8684 29.0938 52.6629 29.2661 52.3977C29.4418 52.1326 29.5296 51.821 29.5296 51.4631C29.5296 51.1184 29.4534 50.8184 29.3009 50.5632C29.1485 50.308 28.933 50.1091 28.6546 49.9666C28.3795 49.8241 28.0547 49.7528 27.6802 49.7528C27.3288 49.7528 26.9974 49.8175 26.6859 49.9467C26.3776 50.0727 26.1257 50.2566 25.9302 50.4986C25.7346 50.7372 25.6286 51.0256 25.612 51.3636H24.4188C24.4387 50.83 24.5994 50.3627 24.9011 49.9617C25.2027 49.5573 25.5971 49.2424 26.0843 49.0171C26.5748 48.7917 27.1134 48.679 27.7001 48.679C28.3298 48.679 28.87 48.8066 29.3208 49.0618C29.7716 49.3137 30.1179 49.6468 30.3599 50.0611C30.6018 50.4754 30.7228 50.9228 30.7228 51.4034C30.7228 51.9768 30.572 52.4657 30.2704 52.87C29.9721 53.2744 29.5661 53.5545 29.0523 53.7102V53.7898C29.6953 53.8958 30.1975 54.1693 30.5587 54.6101C30.92 55.0476 31.1006 55.5895 31.1006 56.2358C31.1006 56.7893 30.9498 57.2865 30.6482 57.7273C30.3499 58.1648 29.9422 58.5095 29.4252 58.7614C28.9082 59.0133 28.3199 59.1392 27.6603 59.1392Z" fill="#F7FFFF"/>
<path d="M41.8045 51.3636V52.4574H38.2647V59H37.0914V51.3636H41.8045Z" fill="#F7FFFF"/>
<path d="M46.223 59.1591C45.5336 59.1591 44.9287 58.995 44.4083 58.6669C43.8913 58.3388 43.4869 57.8797 43.1953 57.2898C42.9069 56.6998 42.7627 56.0104 42.7627 55.2216C42.7627 54.4261 42.9069 53.7318 43.1953 53.1385C43.4869 52.5452 43.8913 52.0845 44.4083 51.7564C44.9287 51.4283 45.5336 51.2642 46.223 51.2642C46.9124 51.2642 47.5156 51.4283 48.0326 51.7564C48.553 52.0845 48.9573 52.5452 49.2457 53.1385C49.5374 53.7318 49.6832 54.4261 49.6832 55.2216C49.6832 56.0104 49.5374 56.6998 49.2457 57.2898C48.9573 57.8797 48.553 58.3388 48.0326 58.6669C47.5156 58.995 46.9124 59.1591 46.223 59.1591ZM46.223 58.1051C46.7466 58.1051 47.1775 57.9709 47.5156 57.7024C47.8536 57.434 48.1039 57.081 48.2663 56.6435C48.4287 56.206 48.5099 55.732 48.5099 55.2216C48.5099 54.7112 48.4287 54.2356 48.2663 53.7948C48.1039 53.3539 47.8536 52.9976 47.5156 52.7259C47.1775 52.4541 46.7466 52.3182 46.223 52.3182C45.6993 52.3182 45.2684 52.4541 44.9304 52.7259C44.5923 52.9976 44.342 53.3539 44.1796 53.7948C44.0172 54.2356 43.936 54.7112 43.936 55.2216C43.936 55.732 44.0172 56.206 44.1796 56.6435C44.342 57.081 44.5923 57.434 44.9304 57.7024C45.2684 57.9709 45.6993 58.1051 46.223 58.1051Z" fill="#F7FFFF"/>
<path d="M50.6589 61.1875V57.9063H51.2952C51.451 57.7439 51.5852 57.5682 51.6979 57.3793C51.8106 57.1903 51.9084 56.9666 51.9913 56.7081C52.0774 56.4463 52.1503 56.1281 52.21 55.7536C52.2697 55.3757 52.3227 54.92 52.3691 54.3864L52.6276 51.3636H57.4799V57.9063H58.6532V61.1875H57.4799V59H51.8322V61.1875H50.6589ZM52.6276 57.9063H56.3066V52.4574H53.7214L53.5225 54.3864C53.4396 55.1851 53.3369 55.8828 53.2143 56.4794C53.0916 57.076 52.8961 57.5516 52.6276 57.9063Z" fill="#F7FFFF"/>
<path d="M61.3838 57.2699L65.0628 51.3636H66.4151V59H65.2418V53.0938L61.5827 59H60.2105V51.3636H61.3838V57.2699Z" fill="#F7FFFF"/>
<path d="M73.6749 54.6449V55.7386H69.4589V54.6449H73.6749ZM69.7374 51.3636V59H68.564V51.3636H69.7374ZM74.5697 51.3636V59H73.3964V51.3636H74.5697Z" fill="#F7FFFF"/>
<path d="M37.0785 39.0283C46.1564 39.0283 53.5155 31.6469 53.5155 22.5415C53.5155 13.436 46.1564 6.05461 37.0785 6.05461C28.0007 6.05461 20.6416 13.436 20.6416 22.5415C20.6416 31.6469 28.0007 39.0283 37.0785 39.0283Z" stroke="#F7FFFF" stroke-width="1.2" stroke-miterlimit="10" stroke-linecap="round" stroke-linejoin="round"/>
<path d="M37.0785 35.3495V38.9678" stroke="#F7FFFF" stroke-width="1.2" stroke-miterlimit="10" stroke-linecap="round" stroke-linejoin="round"/>
<path d="M44.5952 32.912L46.7083 35.8339" stroke="#F7FFFF" stroke-width="1.2" stroke-miterlimit="10" stroke-linecap="round" stroke-linejoin="round"/>
<path d="M49.229 26.4929L52.6553 27.6132" stroke="#F7FFFF" stroke-width="1.2" stroke-miterlimit="10" stroke-linecap="round" stroke-linejoin="round"/>
<path d="M49.229 18.5749L52.6553 17.4546" stroke="#F7FFFF" stroke-width="1.2" stroke-miterlimit="10" stroke-linecap="round" stroke-linejoin="round"/>
<path d="M44.5952 12.171L46.7083 9.24907" stroke="#F7FFFF" stroke-width="1.2" stroke-miterlimit="10" stroke-linecap="round" stroke-linejoin="round"/>
<path d="M38.9783 19.9521L43.1712 14.208" stroke="#F7FFFF" stroke-width="1.2" stroke-miterlimit="10" stroke-linecap="round" stroke-linejoin="round"/>
<path d="M37.0785 9.71833V6.11514" stroke="#F7FFFF" stroke-width="1.2" stroke-miterlimit="10" stroke-linecap="round" stroke-linejoin="round"/>
<path d="M37.0785 6.03947V3.88019" stroke="#F7FFFF" stroke-width="1.2" stroke-miterlimit="10" stroke-linecap="round" stroke-linejoin="round"/>
<path d="M29.5772 12.171L27.449 9.24907" stroke="#F7FFFF" stroke-width="1.2" stroke-miterlimit="10" stroke-linecap="round" stroke-linejoin="round"/>
<path d="M24.9281 18.5749L21.5018 17.4546" stroke="#F7FFFF" stroke-width="1.2" stroke-miterlimit="10" stroke-linecap="round" stroke-linejoin="round"/>
<path d="M24.9281 26.4929L21.5018 27.6132" stroke="#F7FFFF" stroke-width="1.2" stroke-miterlimit="10" stroke-linecap="round" stroke-linejoin="round"/>
<path d="M29.5772 32.912L27.449 35.8339" stroke="#F7FFFF" stroke-width="1.2" stroke-miterlimit="10" stroke-linecap="round" stroke-linejoin="round"/>
<path d="M37.4861 22.1327H36.671V22.9503H37.4861V22.1327Z" fill="#F7FFFF"/>
<path d="M37.0786 25.5391C38.7291 25.5391 40.0672 24.197 40.0672 22.5415C40.0672 20.886 38.7291 19.5439 37.0786 19.5439C35.4281 19.5439 34.0901 20.886 34.0901 22.5415C34.0901 24.197 35.4281 25.5391 37.0786 25.5391Z" stroke="#F7FFFF" stroke-width="1.2" stroke-miterlimit="10" stroke-linecap="round" stroke-linejoin="round"/>
<path d="M41.2596 1.02832H32.8977V3.79884H41.2596V1.02832Z" stroke="#F7FFFF" stroke-width="1.2" stroke-miterlimit="10" stroke-linecap="round" stroke-linejoin="round"/>
<path d="M55.3586 13.5124L53.2465 10.1233L50.0468 12.1295L52.159 15.5187L55.3586 13.5124Z" stroke="#F7FFFF" stroke-width="1.2" stroke-miterlimit="10" stroke-linecap="round" stroke-linejoin="round"/>
</svg>
